<?xml version="1.0" encoding="UTF-8"?>
<svg id="Layer_1" xmlns="http://www.w3.org/2000/svg" version="1.1" viewBox="0 0 384 384">
  <defs>
    <style>
      .bg {
        fill: #7b00ff;
      }

      .fg {
        fill: #fff;
        fill-rule: evenodd;
      }
    </style>
  </defs>
  <rect width="100%" height="100%" class="bg"/>
  <path class="fg" d="M180.7,238.9v-37.8h-15.1v52.9h98.9c14.3,0,25.9-11.6,25.9-25.9s-11.6-25.9-25.9-25.9h-66.4v15.1h66.4c6,0,10.8,4.8,10.8,10.8s-4.8,10.8-10.8,10.8h-83.7Z"/>
  <path class="fg" d="M210.3,143.8h-45.7V128.7h45.7c14.3,0,25.9,11.6,25.9,25.9s-11.6,25.9-25.9,25.9H118.4c-6,0-10.8,4.8-10.8,10.8s4.8,10.8,10.8,10.8h28.8v15.1h-28.8c-14.3,0-25.9-11.6-25.9-25.9s11.6-25.9,25.9-25.9h91.8c6,0,10.8-4.8,10.8-10.8s-4.8-10.8-10.8-10.8Z"/>
</svg>